<?xml version="1.0" encoding="utf-8"?>
<!-- Generator: Adobe Illustrator 23.1.1, SVG Export Plug-In . SVG Version: 6.00 Build 0)  -->
<svg version="1.1" id="Icon" xmlns="http://www.w3.org/2000/svg" xmlns:xlink="http://www.w3.org/1999/xlink" x="0px" y="0px"
	 viewBox="0 0 192 192" style="enable-background:new 0 0 192 192;" xml:space="preserve">
<style type="text/css">
	.st0{fill:#8A8B8E;}
</style>
<path id="Path_61_3_" class="st0" d="M109.7,129.7l24.6,24.6c5.4,5.4,14.2,5.4,19.6,0c5.4-5.4,5.4-14.2,0-19.6L129.3,110
	c11.1-20,7.7-44.9-8.4-61.2c-0.1-0.1-0.1-0.1-0.2-0.2c-20-19.7-52.2-19.6-72,0.3c-20,20-20,52.3,0,72.3
	C64.9,137.4,89.8,140.8,109.7,129.7z M62.1,107.7L62.1,107.7c-12.3-12.5-12.3-32.5,0-45c12.4-12.3,32.5-12.3,44.9,0
	c12.3,12.5,12.3,32.5,0,45C94.6,120,74.6,120,62.1,107.7z"/>
</svg>
