<svg xmlns="http://www.w3.org/2000/svg" viewBox="0 0 152.36 131.65"><title>Asset 6</title><g id="Layer_2" data-name="Layer 2"><g id="Layer_1-2" data-name="Layer 1"><rect x="3.52" y="36.02" width="83.44" height="7.04"/><rect x="26.42" y="92.49" width="23.91" height="7.04"/><rect x="58.72" y="92.49" width="39.03" height="7.04"/><polygon points="116.93 40.4 100.69 24.16 105.67 19.18 116.93 30.44 147.38 0 152.36 4.98 116.93 40.4"/><path d="M125.35,131.65H22.57A22.6,22.6,0,0,1,0,109.08V25.74A22.6,22.6,0,0,1,22.57,3.17H87v7H22.57A15.55,15.55,0,0,0,7,25.74v83.34a15.55,15.55,0,0,0,15.53,15.53H125.35a15.54,15.54,0,0,0,15.53-15.53V55.84h7v53.24A22.59,22.59,0,0,1,125.35,131.65Z"/></g></g></svg>