<svg xmlns="http://www.w3.org/2000/svg" viewBox="0 0 149.15 154.83"><title>Asset 5</title><g id="Layer_2" data-name="Layer 2"><g id="Layer_1-2" data-name="Layer 1"><path d="M125.92,154.83H23.23A23.25,23.25,0,0,1,0,131.61V23.23A23.26,23.26,0,0,1,23.23,0H125.92a23.26,23.26,0,0,1,23.23,23.23V131.61A23.25,23.25,0,0,1,125.92,154.83ZM23.23,7.25a16,16,0,0,0-16,16V131.61a16,16,0,0,0,16,16H125.92a16,16,0,0,0,16-16V23.23a16,16,0,0,0-16-16Z"/><path d="M65.94,121.48H34.18V78.83A12.87,12.87,0,0,1,47,66H65.94Zm-24.51-7.25H58.69v-41H47a5.61,5.61,0,0,0-5.6,5.61Z"/><path d="M115,121.48H83.21V80.88H105A9.94,9.94,0,0,1,115,90.81Zm-24.5-7.25h17.26V90.81A2.7,2.7,0,0,0,105,88.12H90.46Z"/><path d="M90.46,121.48H58.69V33.36H90.46Zm-24.52-7.25H83.21V40.61H65.94Z"/></g></g></svg>